<svg width="389" height="436" viewBox="0 0 389 436" fill="none" xmlns="http://www.w3.org/2000/svg">
<path d="M190 222L190 412" stroke="#CB30E0" stroke-width="20" stroke-linecap="round"/>
<line x1="274.259" y1="271.629" x2="236.629" y2="253.363" stroke="#CB30E0" stroke-width="20" stroke-linecap="round"/>
<line x1="285.442" y1="275.313" x2="329.935" y2="199.558" stroke="#CB30E0" stroke-width="20" stroke-linecap="round"/>
<line x1="197.678" y1="222.345" x2="352.345" y2="133.322" stroke="#34C759" stroke-width="20" stroke-linecap="round"/>
<line x1="198.801" y1="414.241" x2="368.199" y2="316.439" stroke="#CB30E0" stroke-width="20" stroke-linecap="round"/>
<line x1="370" y1="313" x2="370" y2="143" stroke="#34C759" stroke-width="20" stroke-linecap="round"/>
<line x1="187.172" y1="220.235" x2="29.3839" y2="129.136" stroke="#6155F5" stroke-width="20" stroke-linecap="round"/>
<line x1="133.539" y1="258.335" x2="73.335" y2="227.461" stroke="#6155F5" stroke-width="20" stroke-linecap="round"/>
<line x1="182.885" y1="415.66" x2="35.6602" y2="330.66" stroke="#6155F5" stroke-width="20" stroke-linecap="round"/>
<line x1="21.3298" y1="122.772" x2="179.52" y2="31.4404" stroke="#6155F5" stroke-width="20" stroke-linecap="round"/>
<line x1="354.885" y1="114.66" x2="207.66" y2="29.6603" stroke="#34C759" stroke-width="20" stroke-linecap="round"/>
<line x1="200.219" y1="171.69" x2="111.781" y2="120.631" stroke="#34C759" stroke-width="20" stroke-linecap="square"/>
<path d="M251.348 128.785L206 102" stroke="#34C759" stroke-width="20" stroke-linecap="square"/>
<line x1="68" y1="301.013" x2="68" y2="162" stroke="#6155F5" stroke-width="20" stroke-linecap="round"/>
<line x1="231.919" y1="354.082" x2="231.082" y2="251.081" stroke="#CB30E0" stroke-width="20" stroke-linecap="round"/>
<line x1="331.919" y1="299.082" x2="331.082" y2="196.081" stroke="#CB30E0" stroke-width="20" stroke-linecap="round"/>
<line x1="20" y1="320.019" x2="20" y2="133.981" stroke="#6155F5" stroke-width="20" stroke-linecap="round"/>
<circle cx="194" cy="20" r="15.5" fill="white" stroke="#34C759" stroke-width="9"/>
<path d="M191 400.5C199.56 400.5 206.5 407.44 206.5 416C206.5 424.56 199.56 431.5 191 431.5C182.44 431.5 175.5 424.56 175.5 416C175.5 407.44 182.44 400.5 191 400.5Z" fill="white" stroke="#CB30E0" stroke-width="9"/>
<path d="M133 243.5C141.56 243.5 148.5 250.44 148.5 259C148.5 267.56 141.56 274.5 133 274.5C124.44 274.5 117.5 267.56 117.5 259C117.5 250.44 124.44 243.5 133 243.5Z" fill="white" stroke="#6155F5" stroke-width="9"/>
<path d="M113 101.5C121.56 101.5 128.5 108.44 128.5 117C128.5 125.56 121.56 132.5 113 132.5C104.44 132.5 97.5 125.56 97.5 117C97.5 108.44 104.44 101.5 113 101.5Z" fill="white" stroke="#34C759" stroke-width="9"/>
<path d="M283 263.5C291.56 263.5 298.5 270.44 298.5 279C298.5 287.56 291.56 294.5 283 294.5C274.44 294.5 267.5 287.56 267.5 279C267.5 270.44 274.44 263.5 283 263.5Z" fill="white" stroke="#CB30E0" stroke-width="9"/>
<path d="M369 301.5C377.56 301.5 384.5 308.44 384.5 317C384.5 325.56 377.56 332.5 369 332.5C360.44 332.5 353.5 325.56 353.5 317C353.5 308.44 360.44 301.5 369 301.5Z" fill="white" stroke="#CB30E0" stroke-width="9"/>
<circle cx="20" cy="323" r="15.5" fill="white" stroke="#6155F5" stroke-width="9"/>
<circle cx="190" cy="221" r="15.5" fill="white" stroke="#6155F5" stroke-width="9"/>
<circle cx="369" cy="124" r="15.5" fill="white" stroke="#34C759" stroke-width="9"/>
<circle cx="20" cy="124" r="15.5" fill="white" stroke="#6155F5" stroke-width="9"/>
<path d="M264.546 125.112C269.997 130.595 274.077 137.143 276.49 144.281L256.1 150.308C254.643 145.996 252.179 142.041 248.886 138.729L264.546 125.112Z" fill="#34C759"/>
<path d="M276.59 144.292C277.254 149.299 277.111 154.369 276.167 159.336L255.405 155.885C255.98 152.858 256.067 149.768 255.663 146.717L276.59 144.292Z" fill="#34C759"/>
<path d="M276.223 159.35C275.419 162.205 274.35 164.989 273.026 167.669L254.062 159.481C254.874 157.837 255.53 156.13 256.022 154.379L276.223 159.35Z" fill="#34C759"/>
<path d="M273.081 167.488C271.624 170.153 269.917 172.691 267.98 175.073L251.355 163.247C252.543 161.786 253.589 160.23 254.483 158.596L273.081 167.488Z" fill="#34C759"/>
<path d="M265.963 177.315C264.015 179.026 261.934 180.599 259.736 182.021L247.883 166.009C249.233 165.135 250.512 164.169 251.709 163.118L265.963 177.315Z" fill="#34C759"/>
<path d="M268.303 175.13C266.646 176.776 264.872 178.315 262.993 179.738L249.844 164.56C250.996 163.688 252.084 162.744 253.1 161.735L268.303 175.13Z" fill="#34C759"/>
<path d="M259.736 182.022C251.42 187.405 241.655 190.497 231.552 190.944C221.449 191.391 211.415 189.175 202.593 184.55L212.718 167.661C218.157 170.513 224.344 171.879 230.573 171.603C236.803 171.327 242.824 169.421 247.952 166.102L259.736 182.022Z" fill="#34C759"/>
<path d="M179.635 59.1067C185.869 50.0783 195.019 43.1451 205.757 39.3153C216.494 35.4856 228.258 34.9591 239.337 37.8124L233.984 55.9905C227.041 54.2025 219.67 54.5324 212.941 56.9323C206.213 59.3322 200.479 63.6768 196.573 69.3343L179.635 59.1067Z" fill="#34C759"/>
<path d="M194.802 106.981C188.192 103.008 182.589 97.7338 178.384 91.5266L195.952 81.1177C198.538 84.9342 201.983 88.1771 206.047 90.62L194.802 106.981Z" fill="#34C759"/>
<path d="M178.642 91.7307C176.007 85.3663 174.779 78.5686 175.033 71.7481L194.895 72.3929C194.735 76.7031 195.511 80.9989 197.176 85.0209L178.642 91.7307Z" fill="#34C759"/>
<path d="M175.045 71.6152C176.01 67.0928 177.633 62.7154 179.868 58.605L197.583 67.0314C196.17 69.629 195.145 72.3954 194.535 75.2533L175.045 71.6152Z" fill="#34C759"/>
</svg>
