<svg width="389" height="436" viewBox="0 0 389 436" fill="none" xmlns="http://www.w3.org/2000/svg">
<path d="M190 222L190 412" stroke="#A21CAF" stroke-width="20" stroke-linecap="round"/>
<line x1="274.259" y1="271.629" x2="236.629" y2="253.363" stroke="#A21CAF" stroke-width="20" stroke-linecap="round"/>
<line x1="285.442" y1="275.313" x2="329.935" y2="199.558" stroke="#A21CAF" stroke-width="20" stroke-linecap="round"/>
<line x1="200.678" y1="218.345" x2="355.345" y2="129.322" stroke="#16A34A" stroke-width="20" stroke-linecap="round"/>
<line x1="198.801" y1="414.241" x2="368.199" y2="316.439" stroke="#A21CAF" stroke-width="20" stroke-linecap="round"/>
<line x1="370" y1="313" x2="370" y2="143" stroke="#16A34A" stroke-width="20" stroke-linecap="round"/>
<line x1="187.172" y1="220.235" x2="29.3839" y2="129.136" stroke="#4F46E5" stroke-width="20" stroke-linecap="round"/>
<line x1="133.539" y1="258.335" x2="73.335" y2="227.461" stroke="#4F46E5" stroke-width="20" stroke-linecap="round"/>
<line x1="182.885" y1="415.66" x2="35.6602" y2="330.66" stroke="#4F46E5" stroke-width="20" stroke-linecap="round"/>
<line x1="21.3298" y1="122.772" x2="179.52" y2="31.4404" stroke="#4F46E5" stroke-width="20" stroke-linecap="round"/>
<line x1="358.3" y1="117.745" x2="206.745" y2="30.2452" stroke="#16A34A" stroke-width="15" stroke-linecap="round"/>
<line x1="203.634" y1="171.775" x2="110.866" y2="118.215" stroke="#16A34A" stroke-width="15" stroke-linecap="round"/>
<path d="M251.348 128.785L206 102" stroke="#16A34A" stroke-width="15" stroke-linecap="square"/>
<line x1="68" y1="301.013" x2="68" y2="162" stroke="#4F46E5" stroke-width="20" stroke-linecap="round"/>
<line x1="231.919" y1="354.082" x2="231.082" y2="251.081" stroke="#A21CAF" stroke-width="20" stroke-linecap="round"/>
<line x1="331.919" y1="299.082" x2="331.082" y2="196.081" stroke="#A21CAF" stroke-width="20" stroke-linecap="round"/>
<line x1="20" y1="320.019" x2="20" y2="133.981" stroke="#4F46E5" stroke-width="20" stroke-linecap="round"/>
<circle cx="194" cy="20" r="15.5" fill="white" stroke="#16A34A" stroke-width="9"/>
<path d="M191 400.5C199.56 400.5 206.5 407.44 206.5 416C206.5 424.56 199.56 431.5 191 431.5C182.44 431.5 175.5 424.56 175.5 416C175.5 407.44 182.44 400.5 191 400.5Z" fill="white" stroke="#A21CAF" stroke-width="9"/>
<path d="M133 243.5C141.56 243.5 148.5 250.44 148.5 259C148.5 267.56 141.56 274.5 133 274.5C124.44 274.5 117.5 267.56 117.5 259C117.5 250.44 124.44 243.5 133 243.5Z" fill="white" stroke="#4F46E5" stroke-width="9"/>
<path d="M113 101.5C121.56 101.5 128.5 108.44 128.5 117C128.5 125.56 121.56 132.5 113 132.5C104.44 132.5 97.5 125.56 97.5 117C97.5 108.44 104.44 101.5 113 101.5Z" fill="white" stroke="#16A34A" stroke-width="9"/>
<path d="M283 263.5C291.56 263.5 298.5 270.44 298.5 279C298.5 287.56 291.56 294.5 283 294.5C274.44 294.5 267.5 287.56 267.5 279C267.5 270.44 274.44 263.5 283 263.5Z" fill="white" stroke="#A21CAF" stroke-width="9"/>
<path d="M369 301.5C377.56 301.5 384.5 308.44 384.5 317C384.5 325.56 377.56 332.5 369 332.5C360.44 332.5 353.5 325.56 353.5 317C353.5 308.44 360.44 301.5 369 301.5Z" fill="white" stroke="#A21CAF" stroke-width="9"/>
<circle cx="20" cy="323" r="15.5" fill="white" stroke="#4F46E5" stroke-width="9"/>
<circle cx="190" cy="221" r="15.5" fill="white" stroke="#4F46E5" stroke-width="9"/>
<circle cx="369" cy="124" r="15.5" fill="white" stroke="#16A34A" stroke-width="9"/>
<circle cx="20" cy="124" r="15.5" fill="white" stroke="#4F46E5" stroke-width="9"/>
<path d="M261.184 125.791C266.212 130.494 270.198 136.079 272.912 142.226L258.87 147.649C256.919 143.231 254.055 139.217 250.441 135.838L261.184 125.791Z" fill="#16A34A"/>
<path d="M272.915 142.669C273.306 149.182 272.344 155.705 270.082 161.876L255.448 157.184C257.062 152.781 257.748 148.127 257.469 143.48L272.915 142.669Z" fill="#16A34A"/>
<path d="M270.351 161.409C267.355 166.097 263.566 170.299 259.131 173.852L249.066 162.865C252.231 160.33 254.934 157.331 257.072 153.986L270.351 161.409Z" fill="#16A34A"/>
<path d="M265.904 167.524C257.379 176.269 245.841 181.935 233.304 183.536C220.767 185.136 208.027 182.569 197.308 176.282L205.466 164.117C213.137 168.617 222.255 170.455 231.227 169.309C240.2 168.164 248.457 164.108 254.558 157.85L265.904 167.524Z" fill="#16A34A"/>
<path d="M179.635 64.1067C186.518 54.1378 196.935 46.754 209.058 43.2508C221.182 39.7476 234.237 40.3488 245.933 44.9489L239.981 58.1848C231.611 54.8927 222.267 54.4624 213.591 56.9695C204.915 59.4767 197.46 64.761 192.534 71.8954L179.635 64.1067Z" fill="#16A34A"/>
<path d="M196.802 104.981C190.192 101.008 184.589 95.7338 180.384 89.5266L193.354 81.8421C196.364 86.2844 200.373 90.0589 205.104 92.9023L196.802 104.981Z" fill="#16A34A"/>
<path d="M180.16 89.639C177.588 81.3936 177.308 72.671 179.346 64.2961L194.317 67.4817C192.859 73.4754 193.059 79.7179 194.9 85.6189L180.16 89.639Z" fill="#16A34A"/>
</svg>
